<mxfile host="Electron" modified="2024-04-30T14:09:35.059Z" agent="Mozilla/5.0 (Windows NT 10.0; Win64; x64) AppleWebKit/537.36 (KHTML, like Gecko) draw.io/22.0.0 Chrome/114.0.5735.289 Electron/25.8.3 Safari/537.36" etag="j1ieXApkZLCzRYc84vH-" version="22.0.0" type="device">
  <diagram name="Страница — 1" id="iOWfabuzK4Ca3pKNybfb">
    <mxGraphModel dx="1098" dy="820" grid="1" gridSize="10" guides="1" tooltips="1" connect="1" arrows="1" fold="1" page="1" pageScale="1" pageWidth="827" pageHeight="1169" math="0" shadow="0">
      <root>
        <mxCell id="0" />
        <mxCell id="1" parent="0" />
        <mxCell id="rf7WAwZ_NJoDktHIGNMA-6" style="edgeStyle=orthogonalEdgeStyle;rounded=0;orthogonalLoop=1;jettySize=auto;html=1;exitX=0.5;exitY=1;exitDx=0;exitDy=0;entryX=0.5;entryY=0;entryDx=0;entryDy=0;" parent="1" source="rf7WAwZ_NJoDktHIGNMA-1" target="rf7WAwZ_NJoDktHIGNMA-2" edge="1">
          <mxGeometry relative="1" as="geometry" />
        </mxCell>
        <mxCell id="rf7WAwZ_NJoDktHIGNMA-1" value="F,&lt;br&gt;i = 1 ,&lt;br&gt;result = 1" style="rounded=1;whiteSpace=wrap;html=1;" parent="1" vertex="1">
          <mxGeometry x="360" y="160" width="160" height="80" as="geometry" />
        </mxCell>
        <mxCell id="rf7WAwZ_NJoDktHIGNMA-5" style="edgeStyle=orthogonalEdgeStyle;rounded=0;orthogonalLoop=1;jettySize=auto;html=1;exitX=0.5;exitY=1;exitDx=0;exitDy=0;entryX=0.5;entryY=0;entryDx=0;entryDy=0;" parent="1" source="rf7WAwZ_NJoDktHIGNMA-2" target="rf7WAwZ_NJoDktHIGNMA-3" edge="1">
          <mxGeometry relative="1" as="geometry" />
        </mxCell>
        <mxCell id="rf7WAwZ_NJoDktHIGNMA-7" style="edgeStyle=orthogonalEdgeStyle;rounded=0;orthogonalLoop=1;jettySize=auto;html=1;exitX=1;exitY=0.5;exitDx=0;exitDy=0;" parent="1" source="rf7WAwZ_NJoDktHIGNMA-2" target="rf7WAwZ_NJoDktHIGNMA-8" edge="1">
          <mxGeometry relative="1" as="geometry">
            <mxPoint x="600" y="400" as="targetPoint" />
          </mxGeometry>
        </mxCell>
        <mxCell id="rf7WAwZ_NJoDktHIGNMA-2" value="for (i &amp;lt; F+1)" style="rhombus;whiteSpace=wrap;html=1;" parent="1" vertex="1">
          <mxGeometry x="360" y="320" width="160" height="160" as="geometry" />
        </mxCell>
        <mxCell id="rf7WAwZ_NJoDktHIGNMA-4" style="edgeStyle=orthogonalEdgeStyle;rounded=0;orthogonalLoop=1;jettySize=auto;html=1;entryX=0;entryY=0.5;entryDx=0;entryDy=0;exitX=0;exitY=0.5;exitDx=0;exitDy=0;" parent="1" source="rf7WAwZ_NJoDktHIGNMA-3" target="rf7WAwZ_NJoDktHIGNMA-2" edge="1">
          <mxGeometry relative="1" as="geometry">
            <Array as="points">
              <mxPoint x="340" y="560" />
              <mxPoint x="340" y="400" />
            </Array>
          </mxGeometry>
        </mxCell>
        <mxCell id="rf7WAwZ_NJoDktHIGNMA-3" value="result = result&amp;nbsp; * i,&lt;br&gt;i++" style="shape=parallelogram;perimeter=parallelogramPerimeter;whiteSpace=wrap;html=1;fixedSize=1;" parent="1" vertex="1">
          <mxGeometry x="360" y="520" width="160" height="80" as="geometry" />
        </mxCell>
        <mxCell id="rf7WAwZ_NJoDktHIGNMA-8" value="result" style="shape=document;whiteSpace=wrap;html=1;boundedLbl=1;" parent="1" vertex="1">
          <mxGeometry x="600" y="360" width="120" height="80" as="geometry" />
        </mxCell>
      </root>
    </mxGraphModel>
  </diagram>
</mxfile>
